<?xml version="1.0" encoding="UTF-8" standalone="no"?>
<!DOCTYPE svg PUBLIC "-//W3C//DTD SVG 1.1//EN" "http://www.w3.org/Graphics/SVG/1.1/DTD/svg11.dtd">
<svg width="100%" height="100%" viewBox="0 0 3488 1659" version="1.1" xmlns="http://www.w3.org/2000/svg" xmlns:xlink="http://www.w3.org/1999/xlink" xml:space="preserve" xmlns:serif="http://www.serif.com/" style="fill-rule:evenodd;clip-rule:evenodd;stroke-linejoin:round;stroke-miterlimit:2;">
    <g transform="matrix(4.16667,0,0,4.16667,0,0)">
        <path d="M331.177,86.956C291.429,93.965 258.129,123.057 244.765,158.052C237.487,177.108 235.636,198.19 239.578,221.197C249.724,280.425 304.881,323.617 370.99,311.07C423.012,301.195 443.87,265.407 447.888,259.083C448.18,258.624 448.827,258.564 449.198,258.962L462.063,267.946C462.58,268.501 463.516,268.114 463.488,267.357L463.489,213.666C463.455,213.001 462.837,212.669 462.209,212.892L410.065,230.035C409.48,230.235 409.391,231.135 410.126,231.601L422.753,240.301C423.332,240.466 423.566,241.164 423.177,241.623C417.576,248.242 408.003,268.105 364.821,276.081C324.731,283.487 281.91,256.075 274.133,212.581C264.92,161.057 304.404,127.753 337.013,122.003C367.739,116.585 407.679,130.059 423.493,168.828L301.262,190.381C301.001,196.033 301.35,201.801 302.374,207.607C303.337,213.072 304.849,218.302 306.837,223.255L445.466,198.805C451.006,197.828 455.519,195.273 459.007,191.127C462.487,186.987 463.94,182.426 463.367,177.448C456.237,135.206 407.527,73.494 331.177,86.956Z" style="fill:white;"/>
        <path d="M39.522,306.864C35.504,311.033 30.368,313.115 24.116,313.115C18.158,313.115 13.177,311.033 9.154,306.864C5.136,302.695 3.13,297.639 3.13,291.681L3.13,106.969C3.13,101.016 5.136,95.96 9.154,91.786C13.177,87.622 18.158,85.535 24.116,85.535C30.368,85.535 35.504,87.622 39.522,91.786C43.54,95.96 45.551,101.016 45.551,106.969L45.551,291.681C45.551,297.639 43.54,302.695 39.522,306.864ZM5.585,42.718C1.86,39.592 0,34.611 0,27.76L0,20.617C0,13.469 2.011,8.412 6.029,5.433C10.051,2.459 16.222,0.966 24.565,0.966C32.894,0.966 38.923,2.529 42.648,5.655C46.368,8.78 48.229,13.771 48.229,20.617L48.229,27.76C48.229,34.904 46.293,39.97 42.426,42.944C38.554,45.923 32.45,47.411 24.116,47.411C15.476,47.411 9.301,45.848 5.585,42.718Z" style="fill:white;fill-rule:nonzero;"/>
        <path d="M162.239,124.545L162.239,253.721C162.239,268.612 168.938,276.048 182.337,276.048C184.415,276.048 187.248,275.533 190.822,274.486C194.391,273.446 197.219,272.923 199.306,272.923C203.168,272.923 206.45,274.566 209.131,277.837C211.809,281.114 213.149,285.283 213.149,290.34C213.149,296.591 209.575,301.949 202.432,306.416C195.284,310.883 187.248,313.115 178.315,313.115C168.49,313.115 159.486,312.077 151.299,309.99C143.107,307.908 135.818,302.62 129.416,294.136C123.013,285.652 119.817,272.777 119.817,255.505L119.817,124.545L93.915,124.545C88.254,124.545 83.565,122.689 79.85,118.964C76.12,115.243 74.265,110.555 74.265,104.899C74.265,99.248 76.12,94.626 79.85,91.051C83.565,87.482 88.254,85.693 93.915,85.693L119.817,85.693L119.817,22.402C119.817,16.453 121.824,11.391 125.846,7.222C129.864,3.053 135.001,0.966 141.252,0.966C147.201,0.966 152.191,3.053 156.209,7.222C160.232,11.391 162.239,16.453 162.239,22.402L162.239,85.693L199.306,85.693C204.958,85.693 209.646,87.558 213.371,91.278C217.092,95.003 218.952,99.692 218.952,105.342C218.952,111.004 217.092,115.616 213.371,119.186C209.646,122.76 204.958,124.545 199.306,124.545L162.239,124.545Z" style="fill:white;fill-rule:nonzero;"/>
        <path d="M565.292,47.411C560.67,53.369 558.372,63.37 558.372,72.001L558.372,85.844L602.583,85.844C608.531,85.844 613.366,87.709 617.096,91.429C620.811,95.154 622.676,99.842 622.676,105.494C622.676,111.15 620.811,115.763 617.096,119.337C613.366,122.911 608.531,124.695 602.583,124.695L558.372,124.695L558.372,291.681C558.372,297.639 556.36,302.695 552.342,306.864C548.324,311.033 543.187,313.115 536.936,313.115C530.978,313.115 525.992,311.033 521.974,306.864C517.956,302.695 515.945,297.639 515.945,291.681L515.945,124.695L488.258,124.695C482.602,124.695 477.833,122.911 473.971,119.337C470.095,115.763 468.165,111.15 468.165,105.494C468.165,99.842 470.095,95.154 473.971,91.429C477.833,87.709 482.602,85.844 488.258,85.844L515.945,85.844L515.945,72.001C515.945,51.165 522.643,31.859 536.043,19.498C549.438,7.152 568.342,0.966 592.757,0.966C602.875,0.966 611.803,2.831 619.551,6.547C627.29,10.277 631.161,15.858 631.161,23.294C631.161,28.955 629.442,33.643 626.024,37.363C622.601,41.089 618.502,42.944 613.744,42.944C612.549,42.944 609.277,42.349 603.918,41.16C597.37,39.37 591.708,38.478 586.95,38.478C577.125,38.478 569.906,41.457 565.292,47.411Z" style="fill:white;fill-rule:nonzero;"/>
        <path d="M830.126,92.153C826.109,87.989 820.972,85.902 814.721,85.902C808.469,85.902 803.404,87.913 799.537,91.931C795.666,95.949 793.734,101.086 793.734,107.337L793.708,279.244C793.716,279.234 793.734,288.148 793.734,288.148C793.734,335.484 770.656,359.153 724.514,359.153C714.982,359.153 706.653,357.958 699.504,355.578C692.362,353.194 684.169,349.917 674.944,345.753C672.857,344.861 670.628,344.412 668.25,344.412C664.076,344.412 660.355,345.753 657.083,348.435C653.802,351.112 651.276,354.979 649.491,360.045C648.891,362.424 648.599,364.356 648.599,365.847C648.599,374.483 654.104,381.324 665.124,386.39C671.965,389.964 680.751,392.787 691.469,394.874C702.187,396.956 713.05,398 724.07,398C757.706,398 784.801,388.77 805.344,370.314C825.887,351.853 836.156,324.021 836.156,286.807L836.156,107.337C836.156,101.383 834.145,96.327 830.126,92.153Z" style="fill:white;fill-rule:nonzero;"/>
        <path d="M719.155,313.156C735.524,313.156 750.038,310.177 762.696,304.224C763.207,303.984 763.657,303.678 764.16,303.43L764.16,267.233C755.733,271.63 746.1,273.856 735.232,273.856C717.664,273.856 704.566,269.167 695.935,259.792C687.295,250.414 682.985,240.326 682.985,220.676L682.985,107.337C682.985,101.383 680.973,96.327 676.956,92.153C672.938,87.989 667.8,85.902 661.549,85.902C655.298,85.902 650.233,87.913 646.366,91.931C642.494,95.949 640.558,101.086 640.558,107.337L640.558,227.416C640.558,253.021 647.48,273.709 661.328,289.488C675.17,305.272 694.444,313.156 719.155,313.156Z" style="fill:white;fill-rule:nonzero;"/>
    </g>
</svg>
